# xmcd CD database file
#
# Track frame offsets:
#	150
#	18013
#	34598
#
# Disc length: 695 seconds
#
# Revision: 2
# Processed by: cddbd v1.5.1PL2 Copyright (c) Steve Scherf et al.
# Submitted via: CDex 1.51
#
DISCID=1302b503
DTITLE=ケイタク - 泣き方、笑い方…
DYEAR=1994
DGENRE=J-Pop
TTITLE0=泣き方、笑い方…
TTITLE1=ヒトリゴト
TTITLE2=冬の街
EXTD=YEAR: 1994
EXTT0=
EXTT1=
EXTT2=
PLAYORDER=
